<svg width="416" height="416" viewBox="0 0 416 416" fill="none" xmlns="http://www.w3.org/2000/svg">
<g opacity="0.927577">
<g filter="url(#filter0_d_1_2952)">
<path opacity="0.3" d="M207.988 277.981C246.644 277.981 277.981 246.644 277.981 207.988C277.981 169.332 246.644 137.995 207.988 137.995C169.332 137.995 137.994 169.332 137.994 207.988C137.994 246.644 169.332 277.981 207.988 277.981Z" stroke="url(#paint0_linear_1_2952)" stroke-width="1.49986"/>
<path d="M212.987 162.992C212.987 160.231 210.749 157.993 207.988 157.993C205.227 157.993 202.988 160.231 202.988 162.992V252.984C202.988 255.745 205.227 257.983 207.988 257.983C210.749 257.983 212.987 255.745 212.987 252.984V162.992Z" fill="url(#paint1_linear_1_2952)"/>
<path opacity="0.9" d="M225.986 181.99C225.986 179.781 224.195 177.991 221.987 177.991C219.778 177.991 217.987 179.781 217.987 181.99V233.985C217.987 236.194 219.778 237.985 221.987 237.985C224.195 237.985 225.986 236.194 225.986 233.985V181.99Z" fill="url(#paint2_linear_1_2952)"/>
<path opacity="0.8" d="M236.985 191.489C236.985 189.557 235.418 187.99 233.485 187.99C231.553 187.99 229.986 189.557 229.986 191.489V224.486C229.986 226.419 231.553 227.986 233.485 227.986C235.418 227.986 236.985 226.419 236.985 224.486V191.489Z" fill="url(#paint3_linear_1_2952)"/>
<path opacity="0.7" d="M246.984 195.989C246.984 194.332 245.641 192.989 243.984 192.989C242.328 192.989 240.985 194.332 240.985 195.989V219.987C240.985 221.643 242.328 222.986 243.984 222.986C245.641 222.986 246.984 221.643 246.984 219.987V195.989Z" fill="url(#paint4_linear_1_2952)"/>
<path opacity="0.6" d="M255.983 198.489C255.983 197.108 254.864 195.989 253.484 195.989C252.103 195.989 250.984 197.108 250.984 198.489V217.487C250.984 218.868 252.103 219.987 253.484 219.987C254.864 219.987 255.983 218.868 255.983 217.487V198.489Z" fill="url(#paint5_linear_1_2952)"/>
<path opacity="0.5" d="M263.983 199.989C263.983 198.884 263.087 197.989 261.983 197.989C260.878 197.989 259.983 198.884 259.983 199.989V215.987C259.983 217.092 260.878 217.987 261.983 217.987C263.087 217.987 263.983 217.092 263.983 215.987V199.989Z" fill="url(#paint6_linear_1_2952)"/>
<path opacity="0.9" d="M197.989 181.99C197.989 179.781 196.198 177.991 193.989 177.991C191.78 177.991 189.99 179.781 189.99 181.99V233.985C189.99 236.194 191.78 237.985 193.989 237.985C196.198 237.985 197.989 236.194 197.989 233.985V181.99Z" fill="url(#paint7_linear_1_2952)"/>
<path opacity="0.8" d="M185.99 191.489C185.99 189.557 184.423 187.99 182.49 187.99C180.557 187.99 178.991 189.557 178.991 191.489V224.486C178.991 226.419 180.557 227.986 182.49 227.986C184.423 227.986 185.99 226.419 185.99 224.486V191.489Z" fill="url(#paint8_linear_1_2952)"/>
<path opacity="0.7" d="M174.991 195.989C174.991 194.332 173.648 192.989 171.991 192.989C170.335 192.989 168.992 194.332 168.992 195.989V219.987C168.992 221.643 170.335 222.986 171.991 222.986C173.648 222.986 174.991 221.643 174.991 219.987V195.989Z" fill="url(#paint9_linear_1_2952)"/>
<path opacity="0.6" d="M164.992 198.489C164.992 197.108 163.873 195.989 162.492 195.989C161.112 195.989 159.992 197.108 159.992 198.489V217.487C159.992 218.868 161.112 219.987 162.492 219.987C163.873 219.987 164.992 218.868 164.992 217.487V198.489Z" fill="url(#paint10_linear_1_2952)"/>
<path opacity="0.5" d="M155.993 199.989C155.993 198.884 155.097 197.989 153.993 197.989C152.889 197.989 151.993 198.884 151.993 199.989V215.987C151.993 217.092 152.889 217.987 153.993 217.987C155.097 217.987 155.993 217.092 155.993 215.987V199.989Z" fill="url(#paint11_linear_1_2952)"/>
<path opacity="0.9" d="M157.993 160.993C159.65 160.993 160.993 159.65 160.993 157.993C160.993 156.336 159.65 154.993 157.993 154.993C156.336 154.993 154.993 156.336 154.993 157.993C154.993 159.65 156.336 160.993 157.993 160.993Z" fill="#FFD35F"/>
<path opacity="0.9" d="M257.983 160.993C259.64 160.993 260.983 159.65 260.983 157.993C260.983 156.336 259.64 154.993 257.983 154.993C256.327 154.993 254.983 156.336 254.983 157.993C254.983 159.65 256.327 160.993 257.983 160.993Z" fill="#00E0FF"/>
<path opacity="0.9" d="M257.983 260.983C259.64 260.983 260.983 259.64 260.983 257.983C260.983 256.327 259.64 254.983 257.983 254.983C256.327 254.983 254.983 256.327 254.983 257.983C254.983 259.64 256.327 260.983 257.983 260.983Z" fill="#E6A05E"/>
<path opacity="0.9" d="M157.993 260.983C159.65 260.983 160.993 259.64 160.993 257.983C160.993 256.327 159.65 254.983 157.993 254.983C156.336 254.983 154.993 256.327 154.993 257.983C154.993 259.64 156.336 260.983 157.993 260.983Z" fill="#9EC5FF"/>
</g>
</g>
<g opacity="0.927577" filter="url(#filter1_f_1_2952)">
<rect width="255.976" height="255.976" transform="translate(80 80)" fill="url(#paint12_radial_1_2952)"/>
</g>
<defs>
<filter id="filter0_d_1_2952" x="77.9954" y="102.995" width="259.985" height="259.985" filterUnits="userSpaceOnUse" color-interpolation-filters="sRGB">
<feFlood flood-opacity="0" result="BackgroundImageFix"/>
<feColorMatrix in="SourceAlpha" type="matrix" values="0 0 0 0 0 0 0 0 0 0 0 0 0 0 0 0 0 0 127 0" result="hardAlpha"/>
<feOffset dy="25"/>
<feGaussianBlur stdDeviation="25"/>
<feColorMatrix type="matrix" values="0 0 0 0 0 0 0 0 0 0 0 0 0 0 0 0 0 0 0.15 0"/>
<feBlend mode="normal" in2="BackgroundImageFix" result="effect1_dropShadow_1_2952"/>
<feBlend mode="normal" in="SourceGraphic" in2="effect1_dropShadow_1_2952" result="shape"/>
</filter>
<filter id="filter1_f_1_2952" x="-1.52588e-05" y="0" width="415.976" height="415.976" filterUnits="userSpaceOnUse" color-interpolation-filters="sRGB">
<feFlood flood-opacity="0" result="BackgroundImageFix"/>
<feBlend mode="normal" in="SourceGraphic" in2="BackgroundImageFix" result="shape"/>
<feGaussianBlur stdDeviation="40" result="effect1_foregroundBlur_1_2952"/>
</filter>
<linearGradient id="paint0_linear_1_2952" x1="137.994" y1="137.995" x2="14136.7" y2="14136.7" gradientUnits="userSpaceOnUse">
<stop stop-color="#1DB954"/>
<stop offset="0.5" stop-color="#1ED760"/>
<stop offset="1" stop-color="#1DB954"/>
</linearGradient>
<linearGradient id="paint1_linear_1_2952" x1="202.988" y1="157.993" x2="2183" y2="355.994" gradientUnits="userSpaceOnUse">
<stop stop-color="#1DB954"/>
<stop offset="0.5" stop-color="#1ED760"/>
<stop offset="1" stop-color="#1DB954"/>
</linearGradient>
<linearGradient id="paint2_linear_1_2952" x1="217.987" y1="177.991" x2="1789.89" y2="387.578" gradientUnits="userSpaceOnUse">
<stop stop-color="#1DB954"/>
<stop offset="0.5" stop-color="#1ED760"/>
<stop offset="1" stop-color="#1DB954"/>
</linearGradient>
<linearGradient id="paint3_linear_1_2952" x1="229.986" y1="187.99" x2="1588.26" y2="425.687" gradientUnits="userSpaceOnUse">
<stop stop-color="#1DB954"/>
<stop offset="0.5" stop-color="#1ED760"/>
<stop offset="1" stop-color="#1DB954"/>
</linearGradient>
<linearGradient id="paint4_linear_1_2952" x1="240.985" y1="192.989" x2="1394.72" y2="423.737" gradientUnits="userSpaceOnUse">
<stop stop-color="#1DB954"/>
<stop offset="0.5" stop-color="#1ED760"/>
<stop offset="1" stop-color="#1DB954"/>
</linearGradient>
<linearGradient id="paint5_linear_1_2952" x1="250.984" y1="195.989" x2="1209.3" y2="395.637" gradientUnits="userSpaceOnUse">
<stop stop-color="#1DB954"/>
<stop offset="0.5" stop-color="#1ED760"/>
<stop offset="1" stop-color="#1DB954"/>
</linearGradient>
<linearGradient id="paint6_linear_1_2952" x1="259.983" y1="197.989" x2="1029.14" y2="351.82" gradientUnits="userSpaceOnUse">
<stop stop-color="#1DB954"/>
<stop offset="0.5" stop-color="#1ED760"/>
<stop offset="1" stop-color="#1DB954"/>
</linearGradient>
<linearGradient id="paint7_linear_1_2952" x1="189.99" y1="177.991" x2="1761.89" y2="387.578" gradientUnits="userSpaceOnUse">
<stop stop-color="#1DB954"/>
<stop offset="0.5" stop-color="#1ED760"/>
<stop offset="1" stop-color="#1DB954"/>
</linearGradient>
<linearGradient id="paint8_linear_1_2952" x1="178.991" y1="187.99" x2="1537.26" y2="425.687" gradientUnits="userSpaceOnUse">
<stop stop-color="#1DB954"/>
<stop offset="0.5" stop-color="#1ED760"/>
<stop offset="1" stop-color="#1DB954"/>
</linearGradient>
<linearGradient id="paint9_linear_1_2952" x1="168.992" y1="192.989" x2="1322.73" y2="423.737" gradientUnits="userSpaceOnUse">
<stop stop-color="#1DB954"/>
<stop offset="0.5" stop-color="#1ED760"/>
<stop offset="1" stop-color="#1DB954"/>
</linearGradient>
<linearGradient id="paint10_linear_1_2952" x1="159.992" y1="195.989" x2="1118.3" y2="395.637" gradientUnits="userSpaceOnUse">
<stop stop-color="#1DB954"/>
<stop offset="0.5" stop-color="#1ED760"/>
<stop offset="1" stop-color="#1DB954"/>
</linearGradient>
<linearGradient id="paint11_linear_1_2952" x1="151.993" y1="197.989" x2="921.151" y2="351.82" gradientUnits="userSpaceOnUse">
<stop stop-color="#1DB954"/>
<stop offset="0.5" stop-color="#1ED760"/>
<stop offset="1" stop-color="#1DB954"/>
</linearGradient>
<radialGradient id="paint12_radial_1_2952" cx="0" cy="0" r="1" gradientUnits="userSpaceOnUse" gradientTransform="translate(127.988 127.988) rotate(-90) scale(181.002)">
<stop stop-color="#1DB954" stop-opacity="0.4"/>
<stop offset="0.7" stop-opacity="0"/>
</radialGradient>
</defs>
</svg>
